# xmcd
#
# Track frame offsets: 
#        150
#        18877
#        37077
#        59786
#        79960
#        100156
#        119083
#        134362
#        154301
#        169128
#
# Disc length: 2541 seconds
#
# Revision: 0
# Processed by: cddbd v1.5.2PL0 Copyright (c) Steve Scherf et al.
# Submitted via: ExactAudioCopyFreeDBPlugin 1.0
#
DISCID=8e09eb0a
DTITLE=Roberto Poveda - Son Electrico
DYEAR=1900
DGENRE=
TTITLE0=Caminando
TTITLE1=Caramelito
TTITLE2=Ella
TTITLE3=Canciones De Amor
TTITLE4=Rompecabezas
TTITLE5=Buscala
TTITLE6=Sueno Mama
TTITLE7=Lobertad
TTITLE8=Cuando Digo El Amor
TTITLE9=Cadena Perpetua
EXTD=
EXTT0=
EXTT1=
EXTT2=
EXTT3=
EXTT4=
EXTT5=
EXTT6=
EXTT7=
EXTT8=
EXTT9=
PLAYORDER=
